<svg width="768" height="24" fill="none" xmlns="http://www.w3.org/2000/svg"><path d="M749.78 0c-9.64 0-9.64 9.88-19.21 9.88-9.58 0-9.65-9.88-19.22-9.88-9.57 0-9.64 9.88-19.22 9.88-9.64 0-9.64-9.88-19.28-9.88s-9.64 9.88-19.22 9.88C644 9.88 644 0 634.42 0c-9.64 0-9.64 9.88-19.22 9.88-9.57 0-9.84-9.88-19.42-9.88-9.64 0-9.64 9.88-19.21 9.88-9.58 0-9.71-9.88-19.29-9.88-9.64 0-9.64 9.88-19.21 9.88-9.65 0-9.65-9.88-19.29-9.88-9.64 0-9.64 9.88-19.21 9.88-9.64 0-9.64-9.88-19.22-9.88-9.57 0-9.7 9.88-19.35 9.88-9.64 0-9.64-9.88-19.22-9.88-9.64 0-9.64 9.88-19.21 9.88-9.64 0-9.64-9.88-19.29-9.88-9.64 0-9.64 9.88-19.21 9.88-9.64 0-9.64-9.88-19.22-9.88-9.64 0-9.64 9.88-19.22 9.88C336 9.88 336 0 326.42 0c-9.64 0-9.64 9.88-19.29 9.88-9.64 0-9.64-9.88-19.28-9.88s-9.64 9.88-19.28 9.88S258.93 0 249.28 0c-9.64 0-9.64 9.88-19.28 9.88S220.36 0 210.72 0c-9.65 0-9.65 9.88-19.29 9.88-9.64 0-9.64-9.88-19.28-9.88s-9.64 9.88-19.22 9.88C143.3 9.88 143.3 0 133.65 0s-9.64 9.88-19.28 9.88c-9.65 0-9.65-9.88-19.29-9.88-9.64 0-9.64 9.88-19.28 9.88S66.16 0 56.52 0c-9.38 0-9.38 9.88-19.02 9.88C27.86 9.88 27.86 0 18.28 0 8.71 0 8.64 9.88-1 9.88V24h770V9.88c-9.64 0-9.64-9.88-19.22-9.88z" fill="#fff"/></svg>