<svg width="15" height="28" fill="none" xmlns="http://www.w3.org/2000/svg"><path d="M11.7 5.25c1 0 2 0 2.7-.3.4-.8.6-1.9.6-3.01-.2 0-.1-.3-.2-.4 0-.2-.3-.2-.3-.4-.3-.21-.5-.41-.7-.61-.7-.2-1.4-.3-2.2-.5-.8 0-1.9-.1-2.6.1-2.6 0-3.99 1.1-5.29 2.4 0 .11 0 .21-.1.21-.6 1.61-.1 3.62-.2 5.63.1.4.1 1 .2 1.41-1 .3-2.2.4-3.4.5-.3.3-.2 1.11-.2 1.71.1.6.3 1.1.4 1.61.2.2.6.4.8.5.1 0 .1.1.1.1.5.3 1.5 0 2.3.1-.1 2.02.3 3.93 0 5.74 0 .3.3.4.2.8 0 1-.1 2.01.2 2.72-.3.5-.5 1-.4 1.8.1 0 .1.21.1.31-.1.5.6.2.5.7.2.5-.4.2-.4.5v.91c.5.3 1.5.2 2.3.2.9-.4 2.2-.5 2.8-1.2.5.2.9 0 1.2-.2 0-.3.3-.3.2-.7 0-.31-.2-.51-.1-.91v-2.92c-.2-2.31 0-4.93-.3-7.24.9-.1 1.9-.1 2.6-.4.4-.5.4-1.21.5-1.91.2-.2.2-.6.2-1.01.2-.2.1-.7.1-1.1-.1-.6-.2-1.31-.8-1.41-.9-.2-2 .6-3 .3 0-1.1-.3-2.32 0-3.42.8-.2 1.5-.4 2.2-.6zm-3.8 4.83c.1.3.3.5.4.7.1 0 .2 0 .2.1 1.2.1 2.2-.1 3.1-.3 0 1.01-.3 1.71-.5 2.52-.7 0-1.5.3-2 .2-.3.2-.4.5-.6.7 0 .4.1.5 0 .8-.2.11-.1.61-.2.81v1.51c.1.3-.1.3-.1.5v3.53c-.1.3.1.3.1.5v3.02c.1.3-.1.8.1.9-.1.4-.4 0-.8.1-.5.1-.9.4-1.5.4.1-.4.3-.6.3-1.1 0-.4-.39-.3-.49-.5.2-.61.6-1.11.7-1.82.2-.5.7-1.3.3-1.8-.5-.1-.5.3-.8.4 0 .1 0 .2-.1.2 0 .1 0 .2-.1.2 0 .1-.2.1 0 0 0-.1 0-.2.1-.2 0-.1 0-.2.1-.2v-.3c.4-.61.7-1.21.8-2.02.2-.3.3-.7.4-1 .2-.3.3-.9.1-1.21-.5 0-.8.3-.9.7-.3-.2.2-.4.1-.7.1-.2.2-.6.3-.8.2-.4.6-1.31 0-1.61-.4 0-.6.2-.7.5-.2.2-.4.4-.5.7-.4-.1-.1-.7-.2-1.1-.1-.5.1-.9 0-1.21-.6-.8-2-.1-3.2-.3-.1-.3-.2-1-.1-1.2 1-.1 2.5.2 3.2-.21 0-.1 0-.2.1-.2.1-.7-.3-1-.5-1.4.2-.81 0-2.02.1-3.03.2-.1.3-.4.5-.6.1-1 .7-1.5.7-2.51-.3 0-.6-.1-.6.2-.3-.1-.4.5-.5.2-.1-.5.2-.6.3-1 .6-.4 1.2-.81 1.9-1.21 1.7-.2 4.6-.4 6.1.2.1.6-.3.9-.2 1.5h-1.5c-1.1.2-2 .71-3 1.01-.2.1-.3.3-.5.4 0 .4-.2.6-.3 1-.3 1.42-.1 2.62-.1 4.03z" fill="#231F20"/></svg>