<svg width="23" height="20" fill="none" xmlns="http://www.w3.org/2000/svg"><path d="M22.96 4.24c-.2-.4-.88-.3-1.36-.4h-1.07c.1-.4.29-.6.48-1.01.1-.4.3-.7.2-1.31L21.5.9c.1-.1.2-.5.1-.7C21.5 0 21.3 0 21 0c-.1 0-.2.1-.2.1-.38.4-.77 1.01-1.25 1.42h-.1c-.1 0 0 0-.1.1s-.29.2-.39.2c-.29.2-.48.4-.87.5-.49-.2-1.17-.3-1.85-.4-1.16.1-2.23.2-2.91.7-.88.3-1.46 1.02-2.04 1.62 0 .3-.3.4-.4.7 0 0 0 .11-.09.11 0 .2-.1.3-.1.5 0 .1.2.41 0 .51-.77-.1-1.45-.6-2.04-1-.68-.41-1.45-.62-2.04-1.12-.68-.3-1.26-.8-1.75-1.31-.2-.3-.48-.5-.68-.91-.39-.2-.2-.91-.68-.91-.29 0-.29.2-.39.4-.1.2-.38.2-.38.5 0 0 0 .1-.1.1-.2 1.12-.49 2.03-.49 3.34.1.4.3.7.59 1.01-.4.1-.68.2-.88.5-.1 1.12.39 1.62.68 2.33.1.4.39.7.58 1.01 0 .2.2.3.3.4 0 .1.1.1.1.2s.28.2.1.2c-.4.1-.98.1-1.27.41-.1.3-.1.81 0 1.11 0 .2.29.3.29.5.48.41 1.07.72 1.55 1.12.59.2 1.17.3 1.85.4-.1.3-.3.61-.58.71-.78.4-1.75.5-2.63.7-.58 0-.97.21-1.55.21-.3.1-.88.1-1.07.2l-.2.2c-.1.4.1.71.4.91 0 .3.19.3.38.4.1.2.3.31.4.41.48.5 1.25.8 1.84 1.11.77.2 1.55.4 2.43.5.87.1 1.84.1 2.72.2h.97c.48.11 1.17.11 1.85.11.1-.1.29-.1.48-.1.49-.3 1.17-.4 1.56-.7.58-.21.97-.61 1.55-.92.88-.8 1.85-1.31 2.43-2.42.2-.2.39-.4.39-.7.29-.21.39-.51.58-.72.39-.4.68-.9.97-1.41.3-.5.59-1.11.88-1.62 0-.4.29-.5.29-.9.2-.2.2-.71.39-.91 0-.3 0-.4.1-.61 0-1.31 0-2.42-.3-3.43.59-.2 1.17-.3 1.56-.61.78.3 1.26-.1 1.07-.7zm-3.3 4.04c-.2.91-.59 1.42-.98 2.02.1.4-.1.5-.1.91-.19.3-.29.7-.38 1.01-.2.3-.3.6-.49.91-.39.5-.78 1.11-1.17 1.62-.38.6-.87 1-1.26 1.51-.39.5-.87.91-1.36 1.32-.49.2-.87.4-1.26.7-.2.1-.49.2-.68.3-.2.1-.49.1-.68.3-1.07.11-2.24.21-3.5.11-.97-.1-2.04-.2-2.92-.4-.87-.2-1.45-.71-2.23-1.01.2-.2.58-.2.97-.2 0-.2.39 0 .39-.1.3.1.3-.1.49-.1.58-.21 1.16-.31 1.65-.61.29-.1.39-.4.68-.61 0-.2.1-.3.2-.4 0-.3.19-.4.09-.81.1-.2.29-.3.29-.71-.1-.1-.1-.3-.3-.4 0-.2-.38-.1-.38-.2-.3 0-.39 0-.58-.1-.2 0-.49.1-.49-.1-.78 0-1.26-.41-1.85-.71.4-.3.98-.4 1.27-.71.48-.1 1.07-.1 1.07-.7 0-.72-.78-.72-1.27-.82-.77-.7-1.16-1.71-1.75-2.52.2-.2.59-.2.68-.4.5.1.5-.3.69-.51 0-.5-.3-.6-.59-.8-.29-.21-.48-.51-.68-.72 0-.8 0-1.71.1-2.42.1 0 .1 0 .1.1.2.4.58.8.77 1.21.49.4.88.91 1.56 1.11.48.4 1.07.61 1.55 1.01.59.3 1.17.61 1.65.91.68.2 1.07.71 1.95.6l.58-.3c.3-.5-.1-1.1.1-1.61.29-.7.78-1.01 1.26-1.52.3-.2.58-.3.78-.5.29-.1.68-.2.97-.4.39 0 .68-.1.97-.1h1.27c.19.1.48.1.68.1.19.1.38.3.68.4.77.7 1.26 1.72 1.36 3.03 0 .3.1.7.1 1.31zm.28-5.65c-.1.3-.19.7-.58.8 0-.1-.1-.1-.1-.2 0-.2.2-.2.3-.3.1-.1.2-.3.38-.3 0-.1.1 0 0 0zM14.6 5.66c.2.1.3.3.49.4.1.2.29.3.58.4 0-.2.3 0 .39-.2.2 0 .2-.2.29-.3 0-.5-.1-1.01-.39-1.31-.68-.5-1.65 0-1.36 1z" fill="#231F20"/></svg>